<svg xmlns="http://www.w3.org/2000/svg" xmlns:xlink="http://www.w3.org/1999/xlink" version="1.1" width="768px" height="384px" viewBox="0 0 768 384">
<defs>
<clipPath id="clip-1" fill-rule="nonzero" ><path d="M 0,0 L 0,32 768,32 768,0 Z" /></clipPath>
<clipPath id="clip-2" fill-rule="nonzero" ><path d="M 0,355.6 L 0,384 768,384 768,355.6 Z" /></clipPath>
<clipPath id="clip-3" fill-rule="nonzero" ><path d="M 0,0 L 0,384 56,384 56,0 Z" /></clipPath>
<clipPath id="clip-4" fill-rule="nonzero" ><path d="M 56,32 L 56,355.6 768,355.6 768,32 Z" /></clipPath></defs>
<g stroke="none" fill="transparent" fill-rule="nonzero" fill-opacity="1" >
<rect x="0" y="0" width="768" height="384" transform="matrix(1 0 0 1 0 0)" /></g>
<g stroke="rgb(0,0,0)" stroke-width="1" stroke-linecap="butt" stroke-linejoin="miter" stroke-miterlimit="4" stroke-opacity="0.1" fill="none">
<path d="M 56.5,32 L 56.5,355" />
</g>
<g stroke="rgb(0,0,0)" stroke-width="1" stroke-linecap="butt" stroke-linejoin="miter" stroke-miterlimit="4" stroke-opacity="0.1" fill="none">
<path d="M 56.5,356 L 56.5,363.6" />
</g>
<g stroke="rgb(0,0,0)" stroke-width="1" stroke-linecap="butt" stroke-linejoin="miter" stroke-miterlimit="4" stroke-opacity="0.1" fill="none">
<path d="M 234.5,32 L 234.5,355" />
</g>
<g stroke="rgb(0,0,0)" stroke-width="1" stroke-linecap="butt" stroke-linejoin="miter" stroke-miterlimit="4" stroke-opacity="0.1" fill="none">
<path d="M 234.5,356 L 234.5,363.6" />
</g>
<g stroke="rgb(0,0,0)" stroke-width="1" stroke-linecap="butt" stroke-linejoin="miter" stroke-miterlimit="4" stroke-opacity="0.1" fill="none">
<path d="M 412.5,32 L 412.5,355" />
</g>
<g stroke="rgb(0,0,0)" stroke-width="1" stroke-linecap="butt" stroke-linejoin="miter" stroke-miterlimit="4" stroke-opacity="0.1" fill="none">
<path d="M 412.5,356 L 412.5,363.6" />
</g>
<g stroke="rgb(0,0,0)" stroke-width="1" stroke-linecap="butt" stroke-linejoin="miter" stroke-miterlimit="4" stroke-opacity="0.1" fill="none">
<path d="M 590.5,32 L 590.5,355" />
</g>
<g stroke="rgb(0,0,0)" stroke-width="1" stroke-linecap="butt" stroke-linejoin="miter" stroke-miterlimit="4" stroke-opacity="0.1" fill="none">
<path d="M 590.5,356 L 590.5,363.6" />
</g>
<g stroke="rgb(0,0,0)" stroke-width="1" stroke-linecap="butt" stroke-linejoin="miter" stroke-miterlimit="4" stroke-opacity="0.1" fill="none">
<path d="M 768.5,32 L 768.5,355" />
</g>
<g stroke="rgb(0,0,0)" stroke-width="1" stroke-linecap="butt" stroke-linejoin="miter" stroke-miterlimit="4" stroke-opacity="0.1" fill="none">
<path d="M 768.5,356 L 768.5,363.6" />
</g>
<g stroke="rgb(0,0,0)" stroke-width="1" stroke-linecap="butt" stroke-linejoin="miter" stroke-miterlimit="4" stroke-opacity="0.1" fill="none">
<path d="M 57,355.5 L 768,355.5" />
</g>
<g stroke="rgb(0,0,0)" stroke-width="1" stroke-linecap="butt" stroke-linejoin="miter" stroke-miterlimit="4" stroke-opacity="0.1" fill="none">
<path d="M 48,355.5 L 56,355.5" />
</g>
<g stroke="rgb(0,0,0)" stroke-width="1" stroke-linecap="butt" stroke-linejoin="miter" stroke-miterlimit="4" stroke-opacity="0.1" fill="none">
<path d="M 57,309.5 L 768,309.5" />
</g>
<g stroke="rgb(0,0,0)" stroke-width="1" stroke-linecap="butt" stroke-linejoin="miter" stroke-miterlimit="4" stroke-opacity="0.1" fill="none">
<path d="M 48,309.5 L 56,309.5" />
</g>
<g stroke="rgb(0,0,0)" stroke-width="1" stroke-linecap="butt" stroke-linejoin="miter" stroke-miterlimit="4" stroke-opacity="0.1" fill="none">
<path d="M 57,263.5 L 768,263.5" />
</g>
<g stroke="rgb(0,0,0)" stroke-width="1" stroke-linecap="butt" stroke-linejoin="miter" stroke-miterlimit="4" stroke-opacity="0.1" fill="none">
<path d="M 48,263.5 L 56,263.5" />
</g>
<g stroke="rgb(0,0,0)" stroke-width="1" stroke-linecap="butt" stroke-linejoin="miter" stroke-miterlimit="4" stroke-opacity="0.1" fill="none">
<path d="M 57,216.5 L 768,216.5" />
</g>
<g stroke="rgb(0,0,0)" stroke-width="1" stroke-linecap="butt" stroke-linejoin="miter" stroke-miterlimit="4" stroke-opacity="0.1" fill="none">
<path d="M 48,216.5 L 56,216.5" />
</g>
<g stroke="rgb(0,0,0)" stroke-width="1" stroke-linecap="butt" stroke-linejoin="miter" stroke-miterlimit="4" stroke-opacity="0.1" fill="none">
<path d="M 57,170.5 L 768,170.5" />
</g>
<g stroke="rgb(0,0,0)" stroke-width="1" stroke-linecap="butt" stroke-linejoin="miter" stroke-miterlimit="4" stroke-opacity="0.1" fill="none">
<path d="M 48,170.5 L 56,170.5" />
</g>
<g stroke="rgb(0,0,0)" stroke-width="1" stroke-linecap="butt" stroke-linejoin="miter" stroke-miterlimit="4" stroke-opacity="0.1" fill="none">
<path d="M 57,124.5 L 768,124.5" />
</g>
<g stroke="rgb(0,0,0)" stroke-width="1" stroke-linecap="butt" stroke-linejoin="miter" stroke-miterlimit="4" stroke-opacity="0.1" fill="none">
<path d="M 48,124.5 L 56,124.5" />
</g>
<g stroke="rgb(0,0,0)" stroke-width="1" stroke-linecap="butt" stroke-linejoin="miter" stroke-miterlimit="4" stroke-opacity="0.1" fill="none">
<path d="M 57,78.5 L 768,78.5" />
</g>
<g stroke="rgb(0,0,0)" stroke-width="1" stroke-linecap="butt" stroke-linejoin="miter" stroke-miterlimit="4" stroke-opacity="0.1" fill="none">
<path d="M 48,78.5 L 56,78.5" />
</g>
<g stroke="rgb(0,0,0)" stroke-width="1" stroke-linecap="butt" stroke-linejoin="miter" stroke-miterlimit="4" stroke-opacity="0.1" fill="none">
<path d="M 57,32.5 L 768,32.5" />
</g>
<g stroke="rgb(0,0,0)" stroke-width="1" stroke-linecap="butt" stroke-linejoin="miter" stroke-miterlimit="4" stroke-opacity="0.1" fill="none">
<path d="M 48,32.5 L 56,32.5" />
</g>
<g stroke="none" fill="rgb(54,162,235)" fill-rule="nonzero" fill-opacity="1"  clip-path="url(#clip-1)" >
<path d="M 250,10 L 250,22 290,22 290,10 Z" />
</g>
<g stroke="none" fill="#666" fill-rule="nonzero" fill-opacity="1"  clip-path="url(#clip-1)" >
<text style="font:normal 12px &apos;Helvetica Neue&apos;, &apos;Helvetica&apos;, &apos;Arial&apos;, sans-serif;" text-anchor="start" dominant-baseline="middle" transform="matrix(1 0 0 1 0 0)" 
><tspan x="296" y="16">Connections: 200, Payload size: 16384</tspan></text></g>
<g stroke="rgb(0,0,0)" stroke-width="1" stroke-linecap="butt" stroke-linejoin="miter" stroke-miterlimit="4" stroke-opacity="0.1" fill="none">
<path d="M 56,355.5 L 769,355.5" />
</g>
<g stroke="none" fill="#666" fill-rule="nonzero" fill-opacity="1"  clip-path="url(#clip-2)" >
<text style="font:normal 12px &apos;Helvetica Neue&apos;, &apos;Helvetica&apos;, &apos;Arial&apos;, sans-serif;" text-anchor="middle" dominant-baseline="middle" transform="matrix(1 0 0 1 145 366.6)" 
><tspan x="0" y="7.199999999999999">uWebSockets</tspan></text></g>
<g stroke="none" fill="#666" fill-rule="nonzero" fill-opacity="1"  clip-path="url(#clip-2)" >
<text style="font:normal 12px &apos;Helvetica Neue&apos;, &apos;Helvetica&apos;, &apos;Arial&apos;, sans-serif;" text-anchor="middle" dominant-baseline="middle" transform="matrix(1 0 0 1 323 366.6)" 
><tspan x="0" y="7.199999999999999">fastwebsockets</tspan></text></g>
<g stroke="none" fill="#666" fill-rule="nonzero" fill-opacity="1"  clip-path="url(#clip-2)" >
<text style="font:normal 12px &apos;Helvetica Neue&apos;, &apos;Helvetica&apos;, &apos;Arial&apos;, sans-serif;" text-anchor="middle" dominant-baseline="middle" transform="matrix(1 0 0 1 501 366.6)" 
><tspan x="0" y="7.199999999999999">tokio-tungstenite</tspan></text></g>
<g stroke="none" fill="#666" fill-rule="nonzero" fill-opacity="1"  clip-path="url(#clip-2)" >
<text style="font:normal 12px &apos;Helvetica Neue&apos;, &apos;Helvetica&apos;, &apos;Arial&apos;, sans-serif;" text-anchor="middle" dominant-baseline="middle" transform="matrix(1 0 0 1 679 366.6)" 
><tspan x="0" y="7.199999999999999">rust-websocket</tspan></text></g>
<g stroke="rgb(0,0,0)" stroke-width="1" stroke-linecap="butt" stroke-linejoin="miter" stroke-miterlimit="4" stroke-opacity="0.1" fill="none">
<path d="M 56.5,32 L 56.5,356" />
</g>
<g stroke="none" fill="#666" fill-rule="nonzero" fill-opacity="1"  clip-path="url(#clip-3)" >
<text style="font:normal 12px &apos;Helvetica Neue&apos;, &apos;Helvetica&apos;, &apos;Arial&apos;, sans-serif;" text-anchor="end" dominant-baseline="middle" transform="matrix(1 0 0 1 45 355.6)" 
><tspan x="0" y="0">0</tspan></text></g>
<g stroke="none" fill="#666" fill-rule="nonzero" fill-opacity="1"  clip-path="url(#clip-3)" >
<text style="font:normal 12px &apos;Helvetica Neue&apos;, &apos;Helvetica&apos;, &apos;Arial&apos;, sans-serif;" text-anchor="end" dominant-baseline="middle" transform="matrix(1 0 0 1 45 309.3714285714286)" 
><tspan x="0" y="0">20,000</tspan></text></g>
<g stroke="none" fill="#666" fill-rule="nonzero" fill-opacity="1"  clip-path="url(#clip-3)" >
<text style="font:normal 12px &apos;Helvetica Neue&apos;, &apos;Helvetica&apos;, &apos;Arial&apos;, sans-serif;" text-anchor="end" dominant-baseline="middle" transform="matrix(1 0 0 1 45 263.14285714285717)" 
><tspan x="0" y="0">40,000</tspan></text></g>
<g stroke="none" fill="#666" fill-rule="nonzero" fill-opacity="1"  clip-path="url(#clip-3)" >
<text style="font:normal 12px &apos;Helvetica Neue&apos;, &apos;Helvetica&apos;, &apos;Arial&apos;, sans-serif;" text-anchor="end" dominant-baseline="middle" transform="matrix(1 0 0 1 45 216.9142857142857)" 
><tspan x="0" y="0">60,000</tspan></text></g>
<g stroke="none" fill="#666" fill-rule="nonzero" fill-opacity="1"  clip-path="url(#clip-3)" >
<text style="font:normal 12px &apos;Helvetica Neue&apos;, &apos;Helvetica&apos;, &apos;Arial&apos;, sans-serif;" text-anchor="end" dominant-baseline="middle" transform="matrix(1 0 0 1 45 170.6857142857143)" 
><tspan x="0" y="0">80,000</tspan></text></g>
<g stroke="none" fill="#666" fill-rule="nonzero" fill-opacity="1"  clip-path="url(#clip-3)" >
<text style="font:normal 12px &apos;Helvetica Neue&apos;, &apos;Helvetica&apos;, &apos;Arial&apos;, sans-serif;" text-anchor="end" dominant-baseline="middle" transform="matrix(1 0 0 1 45 124.45714285714286)" 
><tspan x="0" y="0">100,000</tspan></text></g>
<g stroke="none" fill="#666" fill-rule="nonzero" fill-opacity="1"  clip-path="url(#clip-3)" >
<text style="font:normal 12px &apos;Helvetica Neue&apos;, &apos;Helvetica&apos;, &apos;Arial&apos;, sans-serif;" text-anchor="end" dominant-baseline="middle" transform="matrix(1 0 0 1 45 78.22857142857146)" 
><tspan x="0" y="0">120,000</tspan></text></g>
<g stroke="none" fill="#666" fill-rule="nonzero" fill-opacity="1"  clip-path="url(#clip-3)" >
<text style="font:normal 12px &apos;Helvetica Neue&apos;, &apos;Helvetica&apos;, &apos;Arial&apos;, sans-serif;" text-anchor="end" dominant-baseline="middle" transform="matrix(1 0 0 1 45 32)" 
><tspan x="0" y="0">140,000</tspan></text></g>
<g stroke="none" fill="rgb(54,162,235)" fill-rule="nonzero" fill-opacity="1"  clip-path="url(#clip-4)" >
<path d="M 80.92,56.330097 L 80.92,355.1 209.08,355.1 209.08,56.330097 Z" />
</g>
<g stroke="none" fill="rgb(54,162,235)" fill-rule="nonzero" fill-opacity="1"  clip-path="url(#clip-4)" >
<path d="M 258.92,68.584521 L 258.92,355.1 387.08,355.1 387.08,68.584521 Z" />
</g>
<g stroke="none" fill="rgb(54,162,235)" fill-rule="nonzero" fill-opacity="1"  clip-path="url(#clip-4)" >
<path d="M 436.92,156.207696 L 436.92,355.1 565.08,355.1 565.08,156.207696 Z" />
</g>
<g stroke="none" fill="rgb(54,162,235)" fill-rule="nonzero" fill-opacity="1"  clip-path="url(#clip-4)" >
<path d="M 614.92,163.86623 L 614.92,355.1 743.08,355.1 743.08,163.86623 Z" />
</g>
</svg>